<svg width="162" height="36" viewBox="0 0 162 36" fill="none" xmlns="http://www.w3.org/2000/svg">
<path d="M121.858 18.294C119.854 21.2354 117.847 24.1724 115.853 27.1184C114.671 28.8643 113.877 28.8914 112.69 27.1613C110.931 24.5965 109.187 22.0227 107.434 19.4534C107.15 19.0361 106.848 18.6301 106.363 17.9533C106.331 18.682 106.298 19.0745 106.298 19.467C106.295 24.0416 106.298 28.6162 106.295 33.1931C106.295 34.5668 105.907 35.0857 104.933 35.0563C104.04 35.0293 103.629 34.4608 103.627 33.2111C103.622 27.0237 103.629 20.8362 103.618 14.6487C103.615 13.7667 103.719 12.9885 104.743 12.7155C105.704 12.4606 106.295 12.9343 106.792 13.6855C109.128 17.2157 111.479 20.7392 113.827 24.2649C113.949 24.4499 114.089 24.6213 114.314 24.9281C115.221 23.5679 116.078 22.2776 116.938 20.9896C118.56 18.5579 120.193 16.1352 121.799 13.6923C122.325 12.8937 122.943 12.4336 123.946 12.7336C124.941 13.0313 124.937 13.8163 124.937 14.6284C124.934 20.8159 124.941 27.0034 124.941 33.1908C124.941 34.4856 124.483 35.0857 123.54 35.0586C122.606 35.0315 122.155 34.4112 122.155 33.1322C122.155 28.6703 122.16 24.2085 122.164 19.7444C122.164 19.2752 122.164 18.806 122.164 18.3368C122.061 18.3233 121.959 18.3075 121.858 18.294Z" fill="white"/>
<path d="M161.906 35.0023C160.248 34.8016 159.607 34.0842 159.379 32.1759C159.147 32.3541 158.939 32.4714 158.784 32.636C156.447 35.1151 153.663 35.8527 150.627 34.6685C147.498 33.4481 145.843 31.0615 145.52 27.7546C145.328 25.7831 145.54 23.8703 146.522 22.0927C149.098 17.4324 155.091 16.6339 158.782 20.4664C158.908 20.5972 159.052 20.71 159.436 21.0528C159.436 20.1641 159.436 19.5257 159.436 18.8851C159.436 17.2361 159.436 15.5849 159.438 13.936C159.438 13.0833 159.846 12.578 160.719 12.5713C161.606 12.5623 161.998 13.0878 161.998 13.9315C162 20.7934 162 27.6531 161.998 34.5151C161.998 34.6572 161.946 34.8038 161.906 35.0023ZM148.195 26.5117C148.189 30.1119 150.623 32.8188 153.835 32.7827C156.869 32.7488 159.465 29.9314 159.488 26.6493C159.51 23.2003 156.957 20.4348 153.733 20.419C150.553 20.4032 148.202 22.9883 148.195 26.5117Z" fill="white"/>
<path d="M130.443 27.6237C130.973 32.0224 135.308 34.1518 139.082 32.045C139.407 31.8623 139.727 31.6548 140.009 31.4134C140.706 30.8224 141.476 30.2449 142.222 31.181C142.998 32.1533 142.125 32.7713 141.455 33.2902C138.661 35.4602 135.566 35.8594 132.372 34.4113C129.277 33.0082 127.844 30.3938 127.695 27.0576C127.547 23.7461 128.692 20.9738 131.544 19.1873C136.172 16.2864 141.938 18.9031 143.014 24.292C143.605 27.2538 143.305 27.6215 140.289 27.6215C137.03 27.6238 133.77 27.6237 130.443 27.6237ZM140.447 25.5395C140.1 22.2032 138.126 20.2137 135.419 20.3648C132.685 20.5159 130.479 22.81 130.495 25.5395C133.786 25.5395 137.077 25.5395 140.447 25.5395Z" fill="white"/>
<path d="M32.2668 0.701514C32.5601 3.59562 30.0337 6.72207 27.1598 7.10555C26.1989 7.23412 25.2177 7.26571 24.2477 7.27022C20.3498 7.28601 16.4519 7.27473 12.554 7.27473C12.1479 7.27473 11.7442 7.27473 11.3539 7.27473C11.0291 4.38062 13.5059 1.33312 16.4632 0.877461C17.1624 0.769186 17.8775 0.712795 18.5858 0.710539C22.7837 0.694749 26.9816 0.701514 31.1796 0.701514C31.5472 0.701514 31.9149 0.701514 32.2668 0.701514Z" fill="white"/>
<path d="M50.5784 12.7629C50.5198 14.4006 49.6423 15.2578 47.9708 15.2758C44.9301 15.3097 41.8894 15.2871 38.8486 15.2894C38.3636 15.2894 37.8787 15.2894 37.2786 15.2894C37.2786 17.809 37.2786 20.2542 37.2786 22.8574C40.9577 22.8574 44.6436 22.8574 48.3408 22.8574C48.1783 24.5311 47.3076 25.359 45.7737 25.3702C43.3714 25.3883 40.969 25.3702 38.5667 25.3702C38.1606 25.3702 37.7523 25.3702 37.1726 25.3702C37.1726 26.7665 37.1726 28.0659 37.1726 29.3629C37.1726 30.4118 37.1997 31.463 37.1591 32.5119C37.1004 34.039 36.1666 34.912 34.4905 34.9955C34.4748 34.6368 34.4454 34.2759 34.4454 33.9172C34.4409 27.5809 34.4409 21.2445 34.4409 14.9104C34.4409 13.1284 34.8199 12.7652 36.629 12.7652C40.872 12.7652 45.1128 12.7652 49.3558 12.7652C49.7619 12.7629 50.1679 12.7629 50.5784 12.7629Z" fill="white"/>
<path d="M4.74873 15.6526C4.62692 12.4133 7.2323 9.29366 10.361 9.19215C14.8183 9.04553 19.2869 9.1538 23.7488 9.15832C23.8142 9.15832 23.8796 9.21696 23.945 9.24854C24.1593 12.4133 21.387 15.4902 17.8771 15.6142C13.5371 15.7676 9.18577 15.6526 4.74873 15.6526Z" fill="white"/>
<path d="M76.3276 35.3C73.6501 35.1737 71.7101 34.5601 69.9236 33.4571C69.2063 33.015 68.7822 32.4217 69.3123 31.5961C69.8108 30.8179 70.4244 31.0322 71.1643 31.3638C72.5154 31.9706 73.9072 32.5413 75.3374 32.9044C76.4878 33.1977 77.6563 32.9112 78.5698 32.036C79.5782 31.0683 79.5308 29.6787 78.3195 28.9952C77.2593 28.3975 76.0479 28.0704 74.9065 27.6192C73.8689 27.2087 72.7816 26.8861 71.8026 26.3606C68.8048 24.7522 69.5514 20.7731 71.5793 19.3723C73.5147 18.0346 75.6351 17.9286 77.8187 18.4971C78.7526 18.7384 79.6548 19.1241 80.5414 19.5099C81.3286 19.8527 81.5677 20.5362 81.1842 21.2739C80.8053 22.0002 80.1443 21.9483 79.4293 21.6776C78.2811 21.2445 77.1284 20.7618 75.9329 20.5453C75.2133 20.4144 74.2997 20.5678 73.6749 20.9355C73.12 21.2603 72.5651 22.0386 72.5267 22.6521C72.4929 23.1912 73.041 24.0259 73.5576 24.2898C74.778 24.9169 76.1336 25.2778 77.4307 25.7583C78.0623 25.9906 78.712 26.1936 79.303 26.5027C80.9181 27.3486 81.8858 28.5915 81.7617 30.5382C81.6399 32.4465 80.7353 33.8293 79.0165 34.5669C78.0082 35.0045 76.878 35.1579 76.3276 35.3Z" fill="white"/>
<path d="M88.3352 20.8678C88.3352 24.2041 88.2675 27.3508 88.3623 30.4885C88.4119 32.1059 89.5533 32.918 91.2023 32.7804C91.4978 32.7555 91.7865 32.654 92.082 32.6022C92.8219 32.4691 93.4715 32.7375 93.4851 33.4796C93.4941 33.924 93.0497 34.6143 92.6369 34.7902C89.0999 36.2948 85.6825 33.9985 85.6441 30.1299C85.6193 27.5809 85.6509 25.0319 85.6577 22.4829C85.6599 22.0025 85.6577 21.5197 85.6577 21.0167C84.7351 20.6964 83.2891 21.2107 83.3433 19.6339C83.3906 18.2399 84.6223 18.5692 85.6509 18.3865C85.6509 17.3669 85.6374 16.3315 85.6554 15.2984C85.6734 14.1931 86.1787 13.5141 86.984 13.566C88.0194 13.6337 88.3578 14.3036 88.333 15.2646C88.3081 16.2706 88.3284 17.2767 88.3284 18.4046C90.1488 18.4046 91.8542 18.4046 93.9407 18.4046C93.4354 19.2279 93.2121 19.9791 92.7068 20.3129C92.1384 20.6919 91.3263 20.7641 90.6067 20.8498C89.9142 20.9355 89.1992 20.8678 88.3352 20.8678Z" fill="white"/>
<path d="M61.5076 21.7656C62.1099 21.1092 62.5002 20.6265 62.9468 20.2069C64.007 19.2121 65.207 18.4813 66.7139 18.4181C67.5553 18.382 68.0989 18.7971 68.1869 19.6249C68.2681 20.3919 67.8711 20.9829 67.0883 21.0709C63.8671 21.4385 61.643 24.7206 61.5189 28.5103C61.4648 30.157 61.4986 31.8059 61.5121 33.4548C61.5189 34.3594 61.2392 35.0226 60.2128 35.0474C59.1752 35.0722 58.8436 34.3662 58.8391 33.5C58.8188 28.9682 58.8211 24.4342 58.8391 19.9024C58.8414 19.0204 59.2023 18.3369 60.2264 18.3685C61.2505 18.4001 61.5257 19.0881 61.5099 19.9813C61.5009 20.4889 61.5076 20.9987 61.5076 21.7656Z" fill="white"/>
<path d="M0.0500842 23.9469C-0.394296 21.0957 2.18401 17.9015 5.18188 17.5136C6.32779 17.3647 7.49852 17.412 8.65346 17.3331C9.4159 17.2812 9.49936 17.6489 9.43845 18.2963C9.15874 21.2062 6.46539 23.7597 3.37278 23.9379C2.26296 23.9988 1.14412 23.9469 0.0500842 23.9469Z" fill="white"/>
<path d="M55.803 26.8884C55.8007 29.0607 55.8075 31.233 55.7985 33.4075C55.7939 34.5624 55.3563 35.1038 54.4518 35.0542C53.4457 35 53.1457 34.3459 53.148 33.4481C53.1547 28.9524 53.1615 24.4567 53.1525 19.9611C53.1502 19.0407 53.4773 18.3798 54.4563 18.3595C55.4466 18.3414 55.8075 19.0069 55.8052 19.9205C55.803 22.2416 55.8052 24.565 55.803 26.8884Z" fill="white"/>
<path d="M54.5373 12.7675C55.39 12.7923 56.1253 13.557 56.0306 14.3848C55.9291 15.2804 55.3832 15.7992 54.4832 15.8533C53.6621 15.903 52.9041 15.1022 52.9222 14.2788C52.9402 13.4374 53.6846 12.7427 54.5373 12.7675Z" fill="white"/>
</svg>
