<svg width="36" height="40" viewBox="0 0 36 40" fill="none" xmlns="http://www.w3.org/2000/svg">
<path fill-rule="evenodd" clip-rule="evenodd" d="M0.756 6.164C5.96046e-08 7.24 0 10.44 0 16.834V19.982C0 31.258 8.478 36.732 13.798 39.054C15.24 39.684 15.962 40 18 40C20.04 40 20.76 39.684 22.202 39.054C27.522 36.73 36 31.26 36 19.982V16.834C36 10.438 36 7.24 35.244 6.164C34.49 5.09 31.484 4.06 25.47 2.002L24.324 1.61C21.19 0.536 19.624 0 18 0C16.378 0 14.81 0.536 11.676 1.61L10.53 2C4.516 4.06 1.51 5.09 0.756 6.164ZM24.12 17C24.2512 16.8529 24.3521 16.6814 24.417 16.4953C24.482 16.3093 24.5096 16.1122 24.4984 15.9154C24.4871 15.7187 24.4372 15.526 24.3516 15.3486C24.2659 15.1711 24.1461 15.0122 23.999 14.881C23.8519 14.7498 23.6804 14.6489 23.4944 14.584C23.3083 14.519 23.1112 14.4914 22.9144 14.5026C22.7177 14.5139 22.525 14.5638 22.3476 14.6494C22.1701 14.7351 22.0112 14.8549 21.88 15.002L15.858 21.75L14.118 19.802C13.8521 19.5082 13.4807 19.3315 13.0849 19.3106C12.6891 19.2897 12.3012 19.4263 12.0058 19.6905C11.7104 19.9547 11.5316 20.3251 11.5084 20.7207C11.4852 21.1163 11.6195 21.5051 11.882 21.802L14.738 25.002C14.8787 25.1596 15.0511 25.2857 15.244 25.3721C15.4368 25.4584 15.6457 25.5031 15.857 25.5031C16.0683 25.5031 16.2772 25.4584 16.47 25.3721C16.6629 25.2857 16.8353 25.1596 16.976 25.002L24.12 17Z" fill="#ED215E"/>
</svg>
