<svg width="162" height="48" viewBox="0 0 162 48" fill="none" xmlns="http://www.w3.org/2000/svg">
<path d="M121.859 17.5935C119.856 20.5349 117.848 23.4718 115.854 26.4177C114.672 28.1636 113.878 28.1907 112.692 26.4606C110.932 23.8959 109.188 21.3221 107.436 18.7529C107.152 18.3356 106.849 17.9296 106.364 17.2529C106.333 17.9815 106.299 18.374 106.299 18.7665C106.297 23.341 106.299 27.9155 106.297 32.4923C106.297 33.866 105.909 34.3848 104.934 34.3555C104.041 34.3284 103.63 33.76 103.628 32.5103C103.624 26.323 103.63 20.1357 103.619 13.9483C103.617 13.0664 103.721 12.2882 104.745 12.0152C105.706 11.7603 106.297 12.234 106.793 12.9852C109.13 16.5153 111.48 20.0387 113.828 23.5643C113.95 23.7493 114.09 23.9207 114.316 24.2275C115.222 22.8673 116.08 21.577 116.939 20.289C118.561 17.8574 120.194 15.4348 121.8 12.9919C122.326 12.1934 122.944 11.7333 123.947 12.0333C124.942 12.331 124.938 13.116 124.938 13.928C124.935 20.1154 124.942 26.3027 124.942 32.49C124.942 33.7848 124.484 34.3848 123.541 34.3577C122.607 34.3306 122.156 33.7103 122.156 32.4314C122.156 27.9696 122.161 23.5079 122.165 19.0439C122.165 18.5747 122.165 18.1055 122.165 17.6364C122.062 17.6228 121.96 17.607 121.859 17.5935Z" fill="#4A2464"/>
<path d="M161.905 34.3014C160.247 34.1007 159.607 33.3834 159.379 31.4751C159.147 31.6533 158.939 31.7706 158.783 31.9352C156.447 34.4142 153.663 35.1518 150.627 33.9676C147.498 32.7473 145.843 30.3608 145.52 27.0539C145.328 25.0825 145.54 23.1697 146.522 21.3922C149.098 16.7319 155.091 15.9334 158.781 19.7658C158.908 19.8967 159.052 20.0095 159.435 20.3523C159.435 19.4636 159.435 18.8252 159.435 18.1846C159.435 16.5357 159.435 14.8845 159.438 13.2356C159.438 12.383 159.846 11.8777 160.719 11.871C161.605 11.8619 161.998 12.3875 161.998 13.2311C162 20.0929 162 26.9524 161.998 33.8142C161.998 33.9563 161.946 34.1029 161.905 34.3014ZM148.195 25.8111C148.189 29.4111 150.622 32.1179 153.835 32.0818C156.868 32.048 159.465 29.2307 159.487 25.9487C159.51 22.4997 156.956 19.7343 153.733 19.7185C150.553 19.7027 148.202 22.2877 148.195 25.8111Z" fill="#4A2464"/>
<path d="M130.444 26.9229C130.974 31.3215 135.309 33.4509 139.083 31.3441C139.408 31.1614 139.728 30.9538 140.01 30.7125C140.707 30.1215 141.476 29.544 142.223 30.4802C142.999 31.4524 142.126 32.0704 141.456 32.5892C138.661 34.7592 135.566 35.1584 132.372 33.7103C129.278 32.3073 127.845 29.6929 127.696 26.3568C127.547 23.0454 128.693 20.2732 131.545 18.4867C136.173 15.5859 141.939 18.2025 143.015 23.5913C143.606 26.553 143.306 26.9207 140.29 26.9207C137.03 26.9229 133.771 26.9229 130.444 26.9229ZM140.448 24.8387C140.1 21.5026 138.127 19.513 135.42 19.6642C132.686 19.8153 130.48 22.1093 130.496 24.8387C133.787 24.8387 137.078 24.8387 140.448 24.8387Z" fill="#4A2464"/>
<path d="M32.2692 0.00144065C32.5625 2.89548 30.0361 6.02185 27.1624 6.40531C26.2015 6.53389 25.2202 6.56547 24.2503 6.56998C20.3525 6.58577 16.4547 6.57449 12.5569 6.57449C12.1508 6.57449 11.7471 6.57449 11.3568 6.57449C11.032 3.68045 13.5088 0.63303 16.466 0.177383C17.1652 0.0691107 17.8803 0.012721 18.5885 0.0104653C22.7864 -0.00532446 26.9842 0.00144065 31.182 0.00144065C31.5497 0.00144065 31.9173 0.00144065 32.2692 0.00144065Z" fill="#E61B51"/>
<path d="M50.5815 12.0625C50.5228 13.7001 49.6453 14.5573 47.9739 14.5753C44.9332 14.6092 41.8926 14.5866 38.8519 14.5889C38.367 14.5889 37.882 14.5889 37.282 14.5889C37.282 17.1085 37.282 19.5536 37.282 22.1567C40.961 22.1567 44.6468 22.1567 48.3438 22.1567C48.1814 23.8304 47.3107 24.6582 45.7769 24.6695C43.3746 24.6875 40.9723 24.6695 38.57 24.6695C38.1639 24.6695 37.7557 24.6695 37.176 24.6695C37.176 26.0658 37.176 27.365 37.176 28.662C37.176 29.7109 37.203 30.7621 37.1624 31.811C37.1038 33.3381 36.1699 34.211 34.494 34.2945C34.4782 33.9358 34.4488 33.5749 34.4488 33.2163C34.4443 26.8801 34.4443 20.5439 34.4443 14.2099C34.4443 12.4279 34.8233 12.0648 36.6323 12.0648C40.8753 12.0648 45.1159 12.0648 49.3589 12.0648C49.7649 12.0625 50.1709 12.0625 50.5815 12.0625Z" fill="#4A2464"/>
<path d="M4.75313 14.9521C4.63132 11.7129 7.23663 8.59334 10.3653 8.49183C14.8225 8.34521 19.291 8.45349 23.7527 8.458C23.8181 8.458 23.8835 8.51664 23.949 8.54822C24.1632 11.7129 21.391 14.7897 17.8812 14.9137C13.5413 15.0671 9.19005 14.9521 4.75313 14.9521Z" fill="#85194C"/>
<path d="M76.3299 34.599C73.6524 34.4727 71.7125 33.8592 69.926 32.7561C69.2087 32.314 68.7847 31.7208 69.3147 30.8952C69.8132 30.117 70.4268 30.3313 71.1666 30.6629C72.5178 31.2697 73.9096 31.8403 75.3397 32.2035C76.4901 32.4967 77.6585 32.2103 78.572 31.3351C79.5803 30.3674 79.533 28.9779 78.3217 28.2944C77.2615 27.6967 76.0502 27.3696 74.9088 26.9185C73.8712 26.5079 72.784 26.1854 71.805 25.6598C68.8072 24.0515 69.5538 20.0725 71.5817 18.6717C73.5171 17.3341 75.6374 17.2281 77.8209 17.7965C78.7548 18.0378 79.657 18.4236 80.5435 18.8093C81.3307 19.1521 81.5698 19.8356 81.1864 20.5732C80.8074 21.2996 80.1465 21.2477 79.4315 20.977C78.2833 20.5439 77.1307 20.0612 75.9352 19.8446C75.2156 19.7138 74.302 19.8672 73.6772 20.2349C73.1223 20.5597 72.5674 21.3379 72.5291 21.9514C72.4952 22.4906 73.0434 23.3252 73.5599 23.5891C74.7802 24.2161 76.1359 24.5771 77.4329 25.0575C78.0645 25.2899 78.7142 25.4929 79.3051 25.8019C80.9202 26.6478 81.8879 27.8906 81.7638 29.8373C81.642 31.7456 80.7375 33.1283 79.0187 33.8659C78.0104 34.3035 76.8803 34.4569 76.3299 34.599Z" fill="#4A2464"/>
<path d="M88.337 20.1672C88.337 23.5033 88.2694 26.65 88.3641 29.7877C88.4137 31.405 89.5551 32.217 91.204 32.0794C91.4995 32.0546 91.7882 31.9531 92.0837 31.9012C92.8236 31.7682 93.4732 32.0366 93.4868 32.7787C93.4958 33.2231 93.0514 33.9133 92.6386 34.0892C89.1017 35.5938 85.6844 33.2975 85.646 29.429C85.6212 26.8801 85.6528 24.3312 85.6595 21.7823C85.6618 21.3018 85.6595 20.8191 85.6595 20.3161C84.737 19.9958 83.2911 20.5101 83.3452 18.9333C83.3926 17.5393 84.6242 17.8687 85.6528 17.686C85.6528 16.6664 85.6393 15.631 85.6573 14.5979C85.6753 13.4926 86.1806 12.8137 86.9859 12.8656C88.0212 12.9332 88.3596 13.6032 88.3348 14.5641C88.31 15.5701 88.3303 16.5762 88.3303 17.704C90.1506 17.704 91.8559 17.704 93.9424 17.704C93.4371 18.5273 93.2138 19.2785 92.7085 19.6123C92.1401 19.9913 91.3281 20.0634 90.6085 20.1491C89.916 20.2349 89.201 20.1672 88.337 20.1672Z" fill="#4A2464"/>
<path d="M61.51 21.0651C62.1123 20.4087 62.5025 19.926 62.9491 19.5064C64.0093 18.5117 65.2093 17.7808 66.7161 17.7177C67.5575 17.6816 68.1011 18.0966 68.1891 18.9245C68.2703 19.6914 67.8733 20.2824 67.0906 20.3703C63.8694 20.738 61.6454 24.02 61.5213 27.8096C61.4672 29.4562 61.501 31.1051 61.5145 32.754C61.5213 33.6585 61.2416 34.3217 60.2152 34.3465C59.1776 34.3713 58.8461 33.6653 58.8415 32.7991C58.8212 28.2675 58.8235 23.7336 58.8415 19.2019C58.8438 18.3199 59.2047 17.6365 60.2288 17.668C61.2529 17.6996 61.5281 18.3876 61.5123 19.2809C61.5032 19.7884 61.51 20.2982 61.51 21.0651Z" fill="#4A2464"/>
<path d="M0.0539892 23.2462C-0.390379 20.395 2.18786 17.201 5.18566 16.813C6.33154 16.6641 7.50224 16.7115 8.65715 16.6325C9.41957 16.5806 9.50303 16.9483 9.44212 17.5957C9.16242 20.5055 6.46914 23.059 3.3766 23.2372C2.26681 23.2981 1.14799 23.2462 0.0539892 23.2462Z" fill="#432563"/>
<path d="M55.8053 26.1875C55.8031 28.3597 55.8098 30.532 55.8008 32.7064C55.7963 33.8613 55.3587 34.4027 54.4542 34.3531C53.4482 34.2989 53.1481 33.6448 53.1504 32.747C53.1572 28.2515 53.1639 23.7559 53.1549 19.2603C53.1527 18.34 53.4797 17.6791 54.4587 17.6588C55.4489 17.6408 55.8098 18.3062 55.8076 19.2197C55.8053 21.5408 55.8076 23.8642 55.8053 26.1875Z" fill="#4A2464"/>
<path d="M95.835 48C95.4131 47.7316 94.8921 47.5444 94.5853 47.179C93.5161 45.9022 92.5191 44.5646 91.2401 43.324C91.2401 44.7857 91.2401 46.2451 91.2401 47.7654C90.7304 47.7654 90.374 47.7654 89.9521 47.7654C89.9521 45.4308 89.9521 43.1278 89.9521 40.7909C90.6875 40.4976 91.1928 40.7593 91.6484 41.3638C92.6048 42.6338 93.6018 43.8721 94.7951 45.3947C94.7951 43.6533 94.7951 42.2571 94.7951 40.7706C95.2846 40.7706 95.6613 40.7706 96.1034 40.7706C96.1034 43.0939 96.1034 45.397 96.1034 47.7023C96.0132 47.7993 95.9229 47.9008 95.835 48Z" fill="#E61B4F"/>
<path d="M62.1233 45.5458C62.1233 46.2406 62.1233 46.9421 62.1233 47.7428C61.6925 47.7722 61.3406 47.7947 60.9053 47.824C60.9053 45.4398 60.9053 43.1367 60.9053 40.739C62.2113 40.739 63.5128 40.6623 64.8031 40.766C65.6602 40.836 66.3911 41.3457 66.5806 42.2548C66.8422 43.5089 66.5445 44.5781 65.085 45.1353C65.6918 46.0398 66.2354 46.8518 66.8061 47.7045C65.8858 47.9842 65.3332 47.7857 64.8166 47.0413C64.2301 46.1909 63.8377 44.833 62.1233 45.5458ZM62.182 44.3638C63.1068 44.2443 63.9053 44.2488 64.6181 44.0029C64.9474 43.8901 65.3219 43.2721 65.2858 42.9202C65.252 42.5706 64.7738 42.063 64.4129 41.9886C63.7113 41.8397 62.9557 41.9457 62.1797 41.9457C62.182 42.7397 62.182 43.43 62.182 44.3638Z" fill="#E61B4F"/>
<path d="M133.299 47.7609C133.078 47.7609 132.724 47.7609 132.309 47.7609C132.309 45.4105 132.309 43.112 132.309 40.7097C133.592 40.7097 134.824 40.6352 136.039 40.7345C136.971 40.8089 137.792 41.2803 138.029 42.2796C138.282 43.3398 138.058 44.2894 137.034 44.903C136.879 44.9954 136.741 45.1173 136.561 45.2503C137.129 46.0737 137.673 46.8609 138.257 47.7068C137.37 47.9549 136.703 47.903 136.294 47.082C136.279 47.0481 136.256 47.0165 136.231 46.9895C135.595 46.3015 135.288 44.8917 134.03 45.4737C133.576 45.6789 133.565 46.8474 133.299 47.7609ZM133.619 44.3503C134.533 44.2398 135.333 44.2511 136.051 44.0097C136.376 43.9014 136.709 43.2879 136.705 42.9067C136.7 42.5886 136.249 42.0653 135.927 42.0067C135.189 41.8713 134.409 41.9638 133.619 41.9638C133.619 42.7781 133.619 43.439 133.619 44.3503Z" fill="#E61B4F"/>
<path d="M76.6475 41.5578C76.3272 41.9142 76.1084 42.1578 75.8377 42.4601C75.5918 42.3202 75.3798 42.1849 75.1565 42.0744C74.067 41.5443 73.0361 41.6954 72.2715 42.4917C71.5181 43.2766 71.3489 44.515 71.8587 45.5143C72.3414 46.4617 73.3452 46.906 74.5271 46.7075C75.4723 46.5474 75.9415 46.094 75.567 45.097C73.9452 44.7744 73.9452 44.7744 73.9542 43.9037C74.8745 43.9037 75.7993 43.9037 76.8979 43.9037C76.8979 44.8128 76.9114 45.7286 76.8843 46.6466C76.8798 46.8 76.7309 47.0008 76.5911 47.0933C75.2693 47.9797 73.8437 48.2933 72.3414 47.6414C70.8797 47.0075 70.2278 45.8278 70.2526 44.2421C70.2752 42.6608 70.9406 41.4586 72.4294 40.9014C73.8527 40.3691 75.2738 40.4345 76.6475 41.5578Z" fill="#E61B4F"/>
<path d="M141.381 47.763C141.381 45.3901 141.381 43.1209 141.381 40.7637C143.113 40.7637 144.812 40.7637 146.531 40.7637C146.776 41.472 146.61 41.8329 145.802 41.8013C145.015 41.772 144.225 41.8283 143.44 41.79C142.671 41.7517 142.606 42.196 142.61 42.787C142.612 43.36 142.732 43.7231 143.425 43.6712C144.058 43.6239 144.701 43.6848 145.335 43.6487C146.154 43.6036 146.312 43.987 146.05 44.8307C145.308 44.8307 144.53 44.8532 143.756 44.8239C143.102 44.7991 142.608 44.8013 142.594 45.7149C142.579 46.6758 143.084 46.7254 143.799 46.6939C144.473 46.6623 145.15 46.7142 145.825 46.6848C146.623 46.651 146.828 46.9916 146.537 47.763C144.864 47.763 143.19 47.763 141.381 47.763Z" fill="#E61B4F"/>
<path d="M80.7266 40.7344C82.5243 40.7344 84.2026 40.7344 85.9327 40.7344C85.9327 41.0682 85.9327 41.3502 85.9327 41.7968C85.1071 41.7968 84.2973 41.7968 83.4875 41.7968C81.8228 41.7968 81.8228 41.7945 82.0484 43.6149C83.1379 43.6149 84.2477 43.6149 85.4477 43.6149C85.4883 44.0254 85.5176 44.3367 85.565 44.8059C84.3469 44.8059 83.2101 44.8059 82.1048 44.8059C81.789 46.66 81.807 46.6871 83.4582 46.6894C84.2409 46.6916 85.0236 46.6894 86.2259 46.6894C85.874 47.2149 85.6868 47.7608 85.4748 47.7698C83.9161 47.842 82.3529 47.8104 80.7266 47.8104C80.7266 45.3991 80.7266 43.1006 80.7266 40.7344Z" fill="#E61B4F"/>
<path d="M50.4527 40.7391C50.906 40.7391 51.2624 40.7391 51.7406 40.7391C51.7406 42.1037 51.7294 43.4436 51.7429 44.779C51.7564 46.0715 52.3813 46.7414 53.5271 46.7347C54.6121 46.7279 55.1648 46.094 55.1806 44.7925C55.1963 43.4549 55.1851 42.1173 55.1851 40.7278C55.6588 40.7278 56.0152 40.7278 56.464 40.7278C56.464 42.4083 56.5791 44.0549 56.4302 45.6767C56.2949 47.1474 54.9054 48.0542 53.3106 47.9685C51.6098 47.8783 50.5045 46.8587 50.4594 45.2617C50.4211 43.7752 50.4527 42.2865 50.4527 40.7391Z" fill="#E61B4F"/>
<path d="M129.325 47.6933C128.454 47.9888 127.865 47.8558 127.658 47.0054C127.455 46.182 126.916 45.9835 126.151 46.0535C125.704 46.0941 125.249 46.0873 124.802 46.0512C124.175 45.9993 123.803 46.2497 123.661 46.8587C123.464 47.7069 122.952 48.0204 121.953 47.7114C122.943 45.4602 123.907 43.2136 124.928 40.994C125.17 40.4684 126.142 40.5045 126.39 41.0459C127.394 43.2451 128.348 45.467 129.325 47.6933ZM124.518 44.8805C125.312 44.8805 125.959 44.8805 126.767 44.8805C126.377 44.0166 126.043 43.2745 125.603 42.3C125.176 43.3106 124.865 44.0504 124.518 44.8805Z" fill="#E61B4F"/>
<path d="M118.854 45.8729C119.115 46.1526 119.318 46.3669 119.745 46.8225C118.926 47.2128 118.256 47.6797 117.518 47.8534C115.743 48.2707 114.115 47.4316 113.424 45.8909C112.685 44.2375 113.172 42.2819 114.584 41.2578C115.958 40.2585 118.015 40.4096 119.531 41.6864C119.3 41.9931 119.064 42.3022 118.834 42.6089C116.948 41.5262 115.84 41.5465 114.963 42.645C114.212 43.5856 114.297 45.1353 115.15 46.0533C116.036 47.0052 117.205 46.9624 118.854 45.8729Z" fill="#E61B4F"/>
<path d="M103.164 47.7608C102.728 47.7608 102.408 47.7608 101.903 47.7608C101.903 46.7864 101.903 45.83 101.903 44.8736C101.903 43.942 101.903 43.0081 101.903 41.9727C101.152 41.9231 100.464 41.878 99.7148 41.8284C99.7148 41.4427 99.7148 41.1224 99.7148 40.7434C101.574 40.7434 103.398 40.7434 105.221 40.7434C105.532 41.8103 105.487 41.9773 104.528 41.8712C103.283 41.7337 103.098 42.2998 103.146 43.3397C103.213 44.7901 103.164 46.2473 103.164 47.7608Z" fill="#E61B4F"/>
<path d="M54.5402 12.0671C55.3928 12.0919 56.1282 12.8565 56.0334 13.6844C55.9319 14.5799 55.3861 15.0987 54.4861 15.1528C53.665 15.2024 52.9071 14.4017 52.9251 13.5784C52.9432 12.737 53.6875 12.0422 54.5402 12.0671Z" fill="#4A2464"/>
</svg>
