<svg width="162" height="48" viewBox="0 0 162 48" fill="none" xmlns="http://www.w3.org/2000/svg">
<path d="M121.869 17.4656C120.948 18.8427 120.033 20.2221 119.103 21.5923C117.896 23.3695 116.68 25.1397 115.466 26.9122C114.621 28.1468 113.711 28.1399 112.826 26.8502C111.357 24.7052 109.91 22.5464 108.461 20.3899C107.789 19.3899 107.13 18.3829 106.287 17.4035C106.266 17.661 106.23 17.9162 106.23 18.1737C106.234 23.0683 106.243 27.9629 106.253 32.8598C106.255 34.0139 105.925 34.4208 104.977 34.4369C103.984 34.4553 103.576 34.0116 103.576 32.8643C103.574 26.4409 103.583 20.0175 103.569 13.5964C103.567 12.8423 103.749 12.2492 104.497 11.9664C105.29 11.6652 106.071 11.9112 106.577 12.6515C107.36 13.7941 108.107 14.962 108.867 16.1207C110.599 18.7554 112.329 21.3923 114.063 24.027C114.105 24.089 114.188 24.1235 114.284 24.1948C115.646 22.1303 116.993 20.0865 118.343 18.0473C119.543 16.2356 120.766 14.4401 121.941 12.6124C122.431 11.8514 123.136 11.7756 123.868 11.9411C124.626 12.1112 124.905 12.7251 124.905 13.4791C124.907 19.9876 124.914 26.4938 124.921 33.0023C124.921 33.7518 124.516 34.2438 123.841 34.4231C123.09 34.6231 122.394 34.2093 122.148 33.4966C122.049 33.2115 122.021 32.8873 122.023 32.5839C122.053 27.7192 122.095 22.8522 122.129 17.9875C122.129 17.8312 122.09 17.6725 122.069 17.5162C122 17.5001 121.934 17.484 121.869 17.4656Z" fill="#2B3790"/>
<path d="M159.254 20.1485C159.254 17.9208 159.264 15.6931 159.25 13.4653C159.243 12.3296 159.621 11.8537 160.593 11.8422C161.523 11.8307 161.968 12.3595 161.97 13.4515C161.979 20.3531 161.991 27.2548 162 34.1541C162 34.2069 161.972 34.2621 161.959 34.315C160.597 34.6851 159.517 33.5701 159.22 31.3654C159.013 31.5562 158.84 31.6688 158.732 31.8252C157.193 34.0138 153.816 35.1633 150.965 34.1656C148.053 33.1471 146.305 31.2389 145.603 28.3192C145.142 26.4064 145.216 24.4753 145.851 22.6223C147.487 17.8495 152.826 15.985 156.806 18.2358C157.499 18.6289 158.059 19.268 158.646 19.829C158.794 19.9692 158.81 20.2428 158.886 20.4566C159.008 20.3554 159.13 20.252 159.254 20.1485ZM159.353 25.7213C159.307 25.4018 159.257 24.9557 159.176 24.5143C158.637 21.4934 155.788 19.406 152.803 19.8405C150.041 20.2405 147.56 23.3028 147.961 26.0754C148.141 27.3168 148.599 28.602 149.249 29.6756C150.727 32.1172 153.821 32.6045 156.103 31.4183C158.326 30.2642 159.224 28.2732 159.353 25.7213Z" fill="#2B3790"/>
<path d="M130.297 26.9604C130.707 29.1628 131.677 30.9216 133.708 31.7101C135.857 32.5447 137.979 32.2251 139.844 30.756C140.045 30.5974 140.247 30.4411 140.432 30.2664C140.984 29.7422 141.528 29.7353 142.056 30.2893C142.636 30.8963 142.654 31.4733 142.056 32.0458C139.688 34.3011 136.866 35.1839 133.711 34.3126C130.018 33.2918 127.98 30.6963 127.604 26.919C127.247 23.3165 128.454 20.2933 131.615 18.3552C136.143 15.578 141.952 18.2679 142.908 23.5004C143.053 24.2912 143.12 25.1028 143.147 25.9074C143.168 26.5305 142.544 26.9696 141.758 26.9673C138.349 26.965 134.941 26.9627 131.529 26.9604C131.138 26.9604 130.746 26.9604 130.297 26.9604ZM140.45 24.8476C140.307 24.2499 140.192 23.6843 140.038 23.128C139.416 20.8703 137.133 19.399 134.823 19.7392C132.064 20.1484 130.887 22.2451 130.355 24.4545C130.329 24.5602 130.696 24.8867 130.891 24.8959C131.541 24.9304 132.195 24.8499 132.847 24.8476C135.314 24.843 137.781 24.8476 140.45 24.8476Z" fill="#2B3790"/>
<path d="M48.4184 22.1394C48.4921 23.5786 47.4164 24.7557 46.0321 24.7603C43.1668 24.7695 40.3015 24.7626 37.367 24.7626C37.3532 24.8936 37.3163 25.0775 37.3163 25.2615C37.3163 27.3834 37.3417 29.5054 37.3187 31.6274C37.3025 33.2942 36.1324 34.4667 34.5362 34.4253C34.5155 34.2483 34.4717 34.0644 34.4717 33.8781C34.4717 27.2018 34.474 20.5255 34.4787 13.8492C34.4787 12.433 35.0222 11.9962 36.4549 11.9985C40.9971 12.0077 45.5392 11.9686 50.0837 11.9249C50.6342 11.9203 50.8576 11.9479 50.6802 12.61C50.3347 13.9021 49.4641 14.6332 47.9554 14.6378C44.6893 14.6493 41.4232 14.6309 38.1571 14.6263C37.9106 14.6263 37.6618 14.6263 37.3601 14.6263C37.3601 17.1736 37.3601 19.6427 37.3601 22.1417C41.08 22.1394 44.7515 22.1394 48.4184 22.1394Z" fill="#2B3790"/>
<path d="M32.3458 0C32.5784 1.95186 31.1388 4.51294 29.3975 5.52221C28.262 6.17972 27.0827 6.48089 25.7559 6.4694C21.3289 6.42802 16.8996 6.4625 12.4704 6.4625C11.2243 6.4625 11.1736 6.38893 11.5145 5.21874C12.5256 1.74954 14.8313 0.0114947 18.4337 0.00689673C22.6349 0.00229872 26.8362 0.002299 31.0398 0C31.459 0 31.8782 0 32.3458 0Z" fill="#F99E1D"/>
<path d="M4.85555 14.8837C4.69662 12.6215 6.44715 9.78452 8.57543 9.03044C9.62114 8.658 10.7682 8.41431 11.8738 8.39132C15.6512 8.30626 19.431 8.34534 23.2108 8.34074C23.4618 8.34074 23.7129 8.37063 24.0446 8.39362C24.0446 8.74996 24.086 9.08102 24.0377 9.39598C23.5586 12.4881 20.9811 14.8814 17.8509 14.9412C13.6473 15.0194 9.44148 14.9573 5.2356 14.9527C5.12735 14.9504 5.01909 14.9136 4.85555 14.8837Z" fill="#F16E24"/>
<path d="M81.653 29.4043C81.63 32.2619 80.0844 33.9701 77.5485 34.4575C74.8398 34.977 72.4351 34.2115 70.1271 32.947C69.0377 32.3516 68.7336 31.6136 69.1505 30.9446C69.5836 30.2526 70.5302 30.248 71.523 30.871C73.414 32.055 75.434 32.5815 77.6475 31.9286C78.6448 31.6343 79.1308 30.8089 79.2414 29.9238C79.3358 29.1583 78.836 28.4479 78.0621 28.1329C77.021 27.7076 75.9569 27.3282 74.8835 26.988C73.4255 26.5259 71.9744 26.1052 70.8297 24.9879C69.0492 23.2544 69.6918 19.9117 71.6496 18.5782C73.6098 17.2425 75.768 17.2839 77.9492 17.7943C78.8245 17.9989 79.6698 18.3621 80.4921 18.7369C81.3766 19.1392 81.6737 19.9691 81.2752 20.6588C80.9182 21.2773 80.1835 21.3715 79.3197 20.9531C77.6705 20.1508 75.9914 19.4794 74.0981 20.0404C73.0731 20.3439 72.465 21.1531 72.4535 22.1371C72.4443 22.9326 72.9902 23.3372 73.5614 23.6016C74.5587 24.0637 75.6275 24.3694 76.6502 24.7786C77.7696 25.2247 78.9212 25.6247 79.9716 26.204C81.3075 26.9397 81.8879 28.1513 81.653 29.4043Z" fill="#2B3790"/>
<path d="M85.594 20.2451C84.6381 20.0565 83.2446 20.5738 83.2654 18.9576C83.2861 17.3529 84.6243 17.8702 85.5894 17.815C85.5894 16.6701 85.5963 15.6034 85.5871 14.5343C85.5779 13.4607 86.1192 12.7595 86.976 12.7572C87.8144 12.7549 88.3995 13.4768 88.3903 14.5136C88.3834 15.362 88.4064 16.2149 88.3442 17.0586C88.2981 17.6633 88.4893 17.8518 89.0997 17.8334C90.5692 17.792 92.041 17.8196 93.5382 17.8196C93.7962 18.9507 92.8357 20.1278 91.4675 20.1738C90.6153 20.2037 89.7631 20.1853 88.9108 20.1692C88.4686 20.16 88.3327 20.3324 88.3373 20.7784C88.3672 23.6637 88.3672 26.5512 88.3788 29.4365C88.3857 31.3033 89.0836 32.0045 90.9447 31.9884C91.3685 31.9838 91.7923 31.9217 92.2115 31.8527C92.8656 31.747 93.3309 31.9907 93.5428 32.5999C93.7639 33.239 93.5912 33.7632 92.9301 34.069C89.5627 35.63 85.5779 33.7057 85.5917 29.5698C85.6032 26.4938 85.594 23.4131 85.594 20.2451Z" fill="#2B3790"/>
<path d="M61.6094 20.8129C62.5423 20.0129 63.3807 19.1255 64.3803 18.4955C65.0805 18.0541 65.9904 17.8748 66.8334 17.7391C67.6718 17.6035 68.1302 18.0472 68.2361 18.8358C68.3444 19.645 67.9528 20.4037 67.2088 20.429C63.9335 20.5439 61.6279 24.4499 61.6025 27.6088C61.5887 29.333 61.6256 31.0596 61.6486 32.7838C61.6624 33.8184 61.1718 34.4253 60.2804 34.4483C59.3107 34.4736 58.8593 34 58.857 32.885C58.85 28.3008 58.85 23.7166 58.857 19.1323C58.857 18.1829 59.4397 17.5138 60.2205 17.523C61.0175 17.5322 61.6002 18.2058 61.6071 19.1346C61.6117 19.7117 61.6094 20.2933 61.6094 20.8129Z" fill="#2B3790"/>
<path d="M9.66945 16.654C9.39996 21.3164 6.12463 23.9649 8.14511e-05 23.3418C-0.0160418 19.7232 2.35869 15.8747 9.66945 16.654Z" fill="#2A3C94"/>
<path d="M53.1309 25.9558C53.1309 23.6338 53.1309 21.3141 53.1309 18.9921C53.1309 18.2081 53.8404 17.484 54.5659 17.5276C55.4181 17.5759 55.9318 18.2748 55.8189 19.1668C55.7567 19.6703 55.7567 20.183 55.7567 20.6911C55.7567 24.2867 55.759 27.8801 55.7706 31.4757C55.7729 31.9539 55.8143 32.4344 55.865 32.9126C55.9571 33.7632 55.4826 34.4 54.6949 34.4552C53.8035 34.515 53.1356 33.9379 53.1332 33.0919C53.1286 30.7147 53.1309 28.3376 53.1309 25.9581C53.1333 25.9558 53.1309 25.9558 53.1309 25.9558Z" fill="#2B3790"/>
<path d="M78.8982 40.8534C78.8982 43.157 78.8982 45.4353 78.8982 47.7067C77.8848 48.0148 77.7696 47.9435 77.7696 46.9733C77.7696 46.0123 77.7903 45.0514 77.788 44.0881C77.788 43.7915 77.7397 43.4949 77.7143 43.1961C77.6383 43.1685 77.5623 43.1409 77.4863 43.1133C76.8506 44.0743 76.2148 45.0376 75.4985 46.1227C74.7845 45.0812 74.1488 44.1524 73.5107 43.2236C73.4324 43.2489 73.3541 43.2742 73.2781 43.2995C73.2436 43.5892 73.1814 43.8789 73.1791 44.1685C73.1699 45.187 73.2113 46.2055 73.156 47.2216C73.1445 47.4469 72.8151 47.6561 72.6309 47.8722C72.4236 47.6768 72.0412 47.4837 72.0366 47.2837C71.9929 45.3042 72.0021 43.3248 72.0297 41.3454C72.032 41.1545 72.2854 40.7959 72.3913 40.8074C72.8036 40.8488 73.3564 40.881 73.5798 41.1476C74.1188 41.7914 74.4966 42.5684 74.9503 43.2834C75.3764 43.9524 75.6045 43.9478 76.0283 43.2811C76.4083 42.6857 76.8321 42.1109 77.1546 41.4856C77.5485 40.7292 78.1312 40.6626 78.8982 40.8534Z" fill="#F8991F"/>
<path d="M141.567 47.7894C140.646 48.0124 140.035 47.8837 139.63 47.1181C139.407 46.6974 139.158 46.2238 138.785 45.9686C138.363 45.6812 137.794 45.5272 137.281 45.5042C137.152 45.4973 136.958 46.2031 136.855 46.5985C136.792 46.8353 136.921 47.1319 136.829 47.3457C136.739 47.5572 136.461 47.8515 136.304 47.8308C136.074 47.7986 135.804 47.5572 135.684 47.3342C135.576 47.1342 135.638 46.8376 135.638 46.5847C135.636 45.0881 135.638 43.5914 135.636 42.0948C135.634 40.7682 135.631 40.7452 137.002 40.7774C137.93 40.7981 138.868 40.8372 139.784 40.9821C140.641 41.1177 141.21 41.6786 141.325 42.5684C141.443 43.4696 141.385 44.3662 140.466 44.8651C139.794 45.2306 139.927 45.5893 140.303 46.0651C140.722 46.587 141.1 47.1411 141.567 47.7894ZM137.847 44.3984C138.414 44.3547 138.794 44.3823 139.142 44.288C139.734 44.1271 140.139 43.7615 140.114 43.0787C140.088 42.3959 139.688 42.0488 139.05 41.9821C138.518 41.9246 137.976 41.9154 137.442 41.9315C137.274 41.9361 136.977 42.0925 136.97 42.1936C136.924 42.8304 136.864 43.4903 136.99 44.1041C137.025 44.2834 137.658 44.3386 137.847 44.3984Z" fill="#F8991F"/>
<path d="M99.4439 47.7435C98.5824 47.9987 98.0043 47.893 97.5851 47.1895C97.2972 46.7044 96.9309 46.2653 96.6223 45.794C96.2538 45.2307 95.6733 45.2123 95.1919 45.4215C94.957 45.5227 94.8833 46.0561 94.7981 46.4078C94.7267 46.7067 94.8211 47.063 94.6944 47.3228C94.5838 47.5527 94.2798 47.7918 94.038 47.8171C93.879 47.8332 93.5289 47.4814 93.5266 47.2883C93.4875 45.3089 93.5105 43.3271 93.499 41.3454C93.4967 40.8856 93.7132 40.7614 94.1255 40.7683C95.1482 40.7821 96.1708 40.75 97.1935 40.7844C98.0688 40.8143 99.0016 41.5293 99.2112 42.2535C99.5222 43.3317 99.2158 44.2766 98.2876 44.833C97.7786 45.1387 97.7809 45.4353 98.0872 45.856C98.5294 46.4607 98.9625 47.0722 99.4439 47.7435ZM96.0349 41.773C95.6526 41.8857 94.9846 41.9316 94.9386 42.1248C94.7935 42.734 94.7865 43.4214 94.9363 44.026C94.98 44.2076 95.7148 44.295 96.1317 44.295C97.4423 44.2927 98.025 43.8881 98.0135 43.0742C98.002 42.1891 97.4584 41.8535 96.0349 41.773Z" fill="#F8991F"/>
<path d="M62.312 47.7848C61.3331 48.0469 60.7227 47.7756 60.2897 46.9893C60.034 46.5249 59.7392 46.0169 59.3246 45.7226C58.963 45.4674 58.4033 45.4191 57.9334 45.4306C57.8228 45.4329 57.6916 46.0284 57.6317 46.3617C57.5833 46.6353 57.6132 46.925 57.6363 47.2055C57.6754 47.6813 57.4589 47.8584 56.996 47.8722C56.5422 47.8837 56.3257 47.7572 56.3303 47.256C56.3487 45.3088 56.3418 43.3592 56.328 41.412C56.3234 40.9338 56.5399 40.7567 56.9936 40.7613C57.9288 40.7728 58.8639 40.7475 59.7991 40.7728C60.8724 40.8004 61.8099 41.4464 62.0518 42.2787C62.3443 43.2902 61.9942 44.2512 61.0268 44.9064C60.6053 45.1915 60.6168 45.4214 60.9001 45.7939C61.3769 46.4169 61.8099 47.0721 62.312 47.7848ZM59.062 41.8718C59.062 41.8787 59.062 41.8856 59.0597 41.8902C58.7787 41.8695 58.4793 41.7821 58.2213 41.8488C58.0002 41.9062 57.6962 42.1132 57.6501 42.3063C57.2424 43.9822 57.6754 44.4604 59.3891 44.2857C59.6125 44.2627 59.8383 44.2213 60.0548 44.1593C60.6559 43.9937 60.9485 43.5799 60.9139 42.9684C60.8794 42.3523 60.5293 41.9867 59.9097 41.9131C59.6287 41.881 59.3453 41.8856 59.062 41.8718Z" fill="#F8991F"/>
<path d="M149.82 40.7637C149.82 41.1913 149.82 41.4901 149.82 41.9109C148.876 41.9109 147.975 41.8994 147.077 41.9155C146.547 41.9247 145.872 41.7109 145.907 42.6695C145.944 43.6949 145.994 43.7731 147.111 43.7846C147.623 43.7892 148.134 43.7754 148.643 43.7892C149.014 43.7983 149.486 43.7983 149.357 44.3409C149.309 44.5501 148.926 44.7915 148.675 44.8191C148.03 44.8904 147.372 44.8651 146.72 44.8467C146.056 44.8283 145.9 45.1961 145.923 45.764C145.944 46.2928 145.923 46.8055 146.704 46.7756C147.554 46.7411 148.41 46.7273 149.256 46.7917C149.484 46.81 149.686 47.1434 149.901 47.3342C149.684 47.5227 149.475 47.863 149.251 47.8722C147.947 47.9228 146.639 47.8837 145.333 47.8975C144.838 47.9021 144.621 47.7365 144.626 47.2078C144.647 45.2858 144.612 43.3615 144.649 41.4396C144.654 41.212 144.969 40.8027 145.151 40.7958C146.678 40.7407 148.208 40.7637 149.82 40.7637Z" fill="#F8991F"/>
<path d="M89.7907 47.771C89.0836 48.0216 88.5723 47.8951 88.3742 47.0997C88.183 46.3364 87.6809 46.0559 86.9162 46.1571C86.6651 46.1916 86.4002 46.2053 86.1515 46.1686C85.1058 46.0214 84.3526 46.2628 84.0508 47.4192C83.8643 48.1365 83.2884 47.8629 82.7886 47.7526C82.7886 47.6261 82.7633 47.5342 82.7932 47.4652C83.6938 45.3961 84.5737 43.3155 85.5204 41.2671C85.8474 40.5613 86.7411 40.5084 87.0359 41.1567C87.9941 43.2603 88.8924 45.3915 89.8091 47.5158C89.8391 47.5825 89.7999 47.679 89.7907 47.771ZM86.4509 42.5844C86.3495 42.5913 86.2459 42.5982 86.1446 42.6028C85.905 43.1477 85.6816 43.7017 85.419 44.2374C85.1426 44.7984 85.3614 45.026 85.9211 45.0466C86.2298 45.0581 86.5568 45.0972 86.8425 45.0122C87.0106 44.9639 87.264 44.6512 87.2271 44.5386C87.006 43.8742 86.7158 43.2327 86.4509 42.5844Z" fill="#F8991F"/>
<path d="M125.382 47.7894C125.667 47.1319 125.923 46.5502 126.176 45.9663C126.837 44.4375 127.478 42.8971 128.18 41.3844C128.302 41.12 128.692 40.8096 128.95 40.8165C129.254 40.8257 129.7 41.0855 129.825 41.3568C130.79 43.4535 131.691 45.5778 132.612 47.6974C131.647 48.0515 131.357 47.9779 131.053 47.0514C130.82 46.3502 130.428 46.1134 129.74 46.1732C129.373 46.2054 128.996 46.2192 128.634 46.1663C127.662 46.0284 127.077 46.3617 126.835 47.3572C126.649 48.1136 126.043 47.8791 125.382 47.7894ZM129.15 42.6281C129.051 42.6212 128.95 42.612 128.851 42.6051C128.57 43.2788 128.275 43.9501 128.021 44.6352C127.989 44.7225 128.162 44.9915 128.249 44.9961C128.839 45.0283 129.433 45.0122 130.216 45.0122C129.795 44.0696 129.472 43.3477 129.15 42.6281Z" fill="#F8991F"/>
<path d="M47.0963 40.7108C48.4437 40.7798 49.6668 40.7384 50.853 40.9315C52.0231 41.1223 52.5874 42.0281 52.5413 43.2213C52.4952 44.3961 51.8319 45.233 50.7033 45.4514C50.1781 45.5525 49.6299 45.6054 49.0955 45.5847C48.552 45.564 48.3815 45.7801 48.4092 46.2767C48.4299 46.6422 48.4852 47.0331 48.3861 47.371C48.3239 47.5779 47.983 47.8538 47.7896 47.8354C47.5454 47.8124 47.1285 47.532 47.1239 47.3526C47.0801 45.2077 47.0963 43.0627 47.0963 40.7108ZM48.4161 43.0604C48.4299 43.7846 48.1834 44.5547 49.3397 44.4858C50.5904 44.4099 51.3298 43.9662 51.3528 43.1156C51.3758 42.2879 50.6042 41.8741 49.1163 41.8603C48.0406 41.8488 48.5658 42.6696 48.4161 43.0604Z" fill="#F8991F"/>
<path d="M122.91 46.7479C122.005 48.0331 120.093 48.2239 118.854 47.7917C117.44 47.2974 116.73 46.0996 116.624 44.5363C116.424 41.582 119.16 40.0348 121.782 40.9797C122.017 41.0648 122.231 41.2165 122.44 41.3568C122.811 41.605 122.945 41.9614 122.572 42.2557C122.38 42.4074 121.959 42.4695 121.742 42.3637C121.049 42.0258 120.395 41.6326 119.577 41.9131C118.557 42.2626 117.993 42.9936 117.871 44.0305C117.758 44.9869 118.073 45.8444 118.859 46.4169C119.755 47.0675 120.736 47.0399 121.627 46.3824C122.245 45.9318 122.592 46.1295 122.91 46.7479Z" fill="#F8991F"/>
<path d="M105.092 47.7664C105.092 47.1801 105.165 46.5571 105.071 45.9593C104.979 45.3731 104.801 44.7639 104.509 44.2512C103.855 43.1109 103.106 42.0234 102.351 40.8487C103.228 40.6693 103.839 40.6923 104.23 41.5246C104.527 42.1591 104.983 42.72 105.363 43.3132C105.628 43.7247 105.877 43.704 106.128 43.2994C106.471 42.7476 106.893 42.2281 107.149 41.6395C107.515 40.7935 108.091 40.5958 109.07 40.8739C108.535 41.697 108.098 42.543 107.499 43.2557C106.6 44.3248 106.294 45.4995 106.384 46.8651C106.448 47.8974 106.335 47.9388 105.092 47.7664Z" fill="#F8991F"/>
<path d="M66.2715 44.2467C66.2715 43.288 66.2853 42.3293 66.2646 41.3706C66.2553 40.9407 66.4074 40.7568 66.8519 40.7545C67.3126 40.7545 67.5245 40.9315 67.5222 41.4005C67.513 43.3754 67.5083 45.3502 67.5245 47.3228C67.5291 47.8125 67.2366 47.9481 66.8818 47.8446C66.6354 47.7734 66.283 47.4929 66.2715 47.2883C66.2093 46.2767 66.2438 45.2583 66.2438 44.2444C66.2507 44.2467 66.2622 44.2467 66.2715 44.2467Z" fill="#F8991F"/>
<path d="M52.896 13.6538C52.8845 12.748 53.6377 11.9342 54.4899 11.9227C55.3145 11.9135 56.0884 12.6952 56.0953 13.5389C56.1022 14.5367 55.4481 15.2378 54.5152 15.231C53.6239 15.2264 52.9075 14.5275 52.896 13.6538Z" fill="#2B3790"/>
</svg>
