<svg width="64" height="64" viewBox="0 0 64 64" fill="none" xmlns="http://www.w3.org/2000/svg">
<path d="M35 46L35 24C35.0033 20.8184 36.2687 17.7681 38.5184 15.5184C40.7681 13.2687 43.8184 12.0033 47 12C47.5304 12 48.0391 12.2107 48.4142 12.5858C48.7893 12.9609 49 13.4696 49 14C49 14.5304 48.7893 15.0391 48.4142 15.4142C48.0391 15.7893 47.5304 16 47 16C44.8783 16 42.8434 16.8429 41.3431 18.3431C39.8429 19.8434 39 21.8783 39 24L39 26L54 26C55.0609 26 56.0783 26.4214 56.8284 27.1716C57.5786 27.9217 58 28.9391 58 30L58 46C58 47.0609 57.5786 48.0783 56.8284 48.8284C56.0783 49.5786 55.0609 50 54 50L39 50C37.9391 50 36.9217 49.5786 36.1716 48.8284C35.4214 48.0783 35 47.0609 35 46ZM10 50L25 50C26.0609 50 27.0783 49.5786 27.8284 48.8284C28.5786 48.0783 29 47.0609 29 46L29 30C29 28.9391 28.5786 27.9217 27.8284 27.1716C27.0783 26.4214 26.0609 26 25 26L10 26L10 24C10 21.8783 10.8429 19.8434 12.3432 18.3431C13.8434 16.8429 15.8783 16 18 16C18.5304 16 19.0391 15.7893 19.4142 15.4142C19.7893 15.0391 20 14.5304 20 14C20 13.4696 19.7893 12.9609 19.4142 12.5858C19.0391 12.2107 18.5304 12 18 12C14.8184 12.0033 11.7681 13.2686 9.51837 15.5184C7.26866 17.7681 6.00331 20.8184 6 24L6 46C6 47.0609 6.42143 48.0783 7.17157 48.8284C7.92172 49.5786 8.93913 50 10 50Z" fill="#ECEBEB"/>
</svg>
